<mxfile host="app.diagrams.net" agent="Mozilla/5.0 (Macintosh; Intel Mac OS X 10_15_7) AppleWebKit/605.1.15 (KHTML, like Gecko) Version/15.3 Safari/605.1.15" version="27.0.3">
  <diagram name="Page-1" id="0-HIuamPLVTsX_l1XziC">
    <mxGraphModel dx="3885" dy="5130" grid="1" gridSize="10" guides="1" tooltips="1" connect="1" arrows="1" fold="1" page="1" pageScale="1" pageWidth="1100" pageHeight="850" math="0" shadow="0">
      <root>
        <mxCell id="0" />
        <mxCell id="1" parent="0" />
        <mxCell id="TwdX6o6YfYwtIvAuUACk-1" value="" style="ellipse;whiteSpace=wrap;html=1;dashed=1;dashPattern=8 8;strokeWidth=3;fillColor=none;gradientColor=default;strokeColor=default;" vertex="1" parent="1">
          <mxGeometry x="650" y="-1936.68" width="1140" height="594.68" as="geometry" />
        </mxCell>
        <mxCell id="TwdX6o6YfYwtIvAuUACk-2" value="" style="ellipse;whiteSpace=wrap;html=1;dashed=1;dashPattern=8 8;strokeWidth=3;fillColor=none;gradientColor=default;strokeColor=default;" vertex="1" parent="1">
          <mxGeometry x="659.7" y="-2279.57" width="371.68" height="254.02" as="geometry" />
        </mxCell>
        <mxCell id="TwdX6o6YfYwtIvAuUACk-3" value="" style="sketch=0;pointerEvents=1;shadow=0;dashed=0;html=1;strokeColor=none;fillColor=#434445;aspect=fixed;labelPosition=center;verticalLabelPosition=bottom;verticalAlign=top;align=center;outlineConnect=0;shape=mxgraph.vvd.phone;" vertex="1" parent="1">
          <mxGeometry x="1474.96" y="-1684.3400000000001" width="101.5" height="172.03" as="geometry" />
        </mxCell>
        <mxCell id="TwdX6o6YfYwtIvAuUACk-4" style="edgeStyle=orthogonalEdgeStyle;rounded=0;orthogonalLoop=1;jettySize=auto;html=1;strokeWidth=4;" edge="1" parent="1" source="TwdX6o6YfYwtIvAuUACk-5" target="TwdX6o6YfYwtIvAuUACk-60">
          <mxGeometry relative="1" as="geometry">
            <mxPoint x="1369.0859099999998" y="-1855.6459599999998" as="targetPoint" />
            <Array as="points">
              <mxPoint x="1675" y="-1767" />
              <mxPoint x="1380" y="-1767" />
              <mxPoint x="1380" y="-2014" />
            </Array>
          </mxGeometry>
        </mxCell>
        <mxCell id="TwdX6o6YfYwtIvAuUACk-5" value="" style="sketch=0;pointerEvents=1;shadow=0;dashed=0;html=1;strokeColor=none;fillColor=#434445;aspect=fixed;labelPosition=center;verticalLabelPosition=bottom;verticalAlign=top;align=center;outlineConnect=0;shape=mxgraph.vvd.phone;" vertex="1" parent="1">
          <mxGeometry x="1622.86" y="-1684.3400000000001" width="101.5" height="172.03" as="geometry" />
        </mxCell>
        <mxCell id="TwdX6o6YfYwtIvAuUACk-6" style="edgeStyle=orthogonalEdgeStyle;rounded=0;orthogonalLoop=1;jettySize=auto;html=1;strokeWidth=4;" edge="1" parent="1" source="TwdX6o6YfYwtIvAuUACk-3" target="TwdX6o6YfYwtIvAuUACk-60">
          <mxGeometry relative="1" as="geometry">
            <Array as="points">
              <mxPoint x="1527" y="-1767" />
              <mxPoint x="1380" y="-1767" />
              <mxPoint x="1380" y="-2014" />
            </Array>
            <mxPoint x="1370.5578100000002" y="-1854.1326599999993" as="targetPoint" />
          </mxGeometry>
        </mxCell>
        <mxCell id="TwdX6o6YfYwtIvAuUACk-7" value="" style="rounded=1;whiteSpace=wrap;html=1;strokeWidth=3;dashed=1;strokeColor=none;fillColor=#E6E6E6;" vertex="1" parent="1">
          <mxGeometry x="782" y="-1832.04" width="566.64" height="278.04" as="geometry" />
        </mxCell>
        <mxCell id="TwdX6o6YfYwtIvAuUACk-8" value="" style="rounded=1;whiteSpace=wrap;html=1;fillColor=none;strokeWidth=4;strokeColor=#000000;" vertex="1" parent="1">
          <mxGeometry x="1048.6399999999999" y="-1797.3199999999997" width="218.98" height="61" as="geometry" />
        </mxCell>
        <mxCell id="TwdX6o6YfYwtIvAuUACk-9" value="" style="rounded=1;whiteSpace=wrap;html=1;fillColor=none;strokeWidth=4;strokeColor=#000000;" vertex="1" parent="1">
          <mxGeometry x="1048.6399999999999" y="-1672.1999999999998" width="217.11" height="61" as="geometry" />
        </mxCell>
        <mxCell id="TwdX6o6YfYwtIvAuUACk-10" value="" style="ellipse;whiteSpace=wrap;html=1;aspect=fixed;fillColor=none;strokeWidth=4;strokeColor=#000000;" vertex="1" parent="1">
          <mxGeometry x="1265.75" y="-1670.1999999999998" width="57" height="57" as="geometry" />
        </mxCell>
        <mxCell id="TwdX6o6YfYwtIvAuUACk-11" value="" style="rounded=0;whiteSpace=wrap;html=1;fillColor=#E6E6E6;strokeColor=none;" vertex="1" parent="1">
          <mxGeometry x="1036.6399999999999" y="-1804.04" width="27" height="200" as="geometry" />
        </mxCell>
        <mxCell id="TwdX6o6YfYwtIvAuUACk-12" value="" style="endArrow=classic;html=1;rounded=0;strokeWidth=4;strokeColor=#000000;" edge="1" parent="1">
          <mxGeometry width="50" height="50" relative="1" as="geometry">
            <mxPoint x="1273.87" y="-1602.15" as="sourcePoint" />
            <mxPoint x="1320.62" y="-1689.3799999999997" as="targetPoint" />
          </mxGeometry>
        </mxCell>
        <mxCell id="TwdX6o6YfYwtIvAuUACk-13" value="" style="ellipse;whiteSpace=wrap;html=1;aspect=fixed;fillColor=none;strokeWidth=4;strokeColor=#000000;" vertex="1" parent="1">
          <mxGeometry x="1267.62" y="-1795.3199999999997" width="57" height="57" as="geometry" />
        </mxCell>
        <mxCell id="TwdX6o6YfYwtIvAuUACk-14" value="" style="group" vertex="1" connectable="0" parent="1">
          <mxGeometry x="716.5" y="-1684.3399999999997" width="101.5" height="172.02999999999997" as="geometry" />
        </mxCell>
        <mxCell id="TwdX6o6YfYwtIvAuUACk-15" value="" style="sketch=0;pointerEvents=1;shadow=0;dashed=0;html=1;strokeColor=none;fillColor=#434445;aspect=fixed;labelPosition=center;verticalLabelPosition=bottom;verticalAlign=top;align=center;outlineConnect=0;shape=mxgraph.vvd.phone;" vertex="1" parent="TwdX6o6YfYwtIvAuUACk-14">
          <mxGeometry width="101.5" height="172.03" as="geometry" />
        </mxCell>
        <mxCell id="TwdX6o6YfYwtIvAuUACk-16" value="" style="rounded=1;whiteSpace=wrap;html=1;arcSize=7;strokeColor=none;" vertex="1" parent="TwdX6o6YfYwtIvAuUACk-14">
          <mxGeometry x="7" y="6" width="87.55" height="144" as="geometry" />
        </mxCell>
        <mxCell id="TwdX6o6YfYwtIvAuUACk-17" value="" style="rounded=1;whiteSpace=wrap;html=1;strokeWidth=3;dashed=1;strokeColor=none;fillColor=#E6E6E6;arcSize=3;" vertex="1" parent="1">
          <mxGeometry x="1160" y="-2426.98" width="967" height="556.98" as="geometry" />
        </mxCell>
        <mxCell id="TwdX6o6YfYwtIvAuUACk-18" value="" style="endArrow=none;html=1;rounded=0;entryX=0.75;entryY=0;entryDx=0;entryDy=0;exitX=0.75;exitY=1;exitDx=0;exitDy=0;strokeWidth=4;" edge="1" parent="1" source="TwdX6o6YfYwtIvAuUACk-8" target="TwdX6o6YfYwtIvAuUACk-8">
          <mxGeometry width="50" height="50" relative="1" as="geometry">
            <mxPoint x="1696.6399999999999" y="-1741.04" as="sourcePoint" />
            <mxPoint x="1746.6399999999999" y="-1791.04" as="targetPoint" />
          </mxGeometry>
        </mxCell>
        <mxCell id="TwdX6o6YfYwtIvAuUACk-19" value="" style="endArrow=none;html=1;rounded=0;entryX=0.75;entryY=0;entryDx=0;entryDy=0;exitX=0.75;exitY=1;exitDx=0;exitDy=0;strokeWidth=4;" edge="1" parent="1">
          <mxGeometry width="50" height="50" relative="1" as="geometry">
            <mxPoint x="1240.6399999999999" y="-1736.3199999999997" as="sourcePoint" />
            <mxPoint x="1240.6399999999999" y="-1797.3199999999997" as="targetPoint" />
          </mxGeometry>
        </mxCell>
        <mxCell id="TwdX6o6YfYwtIvAuUACk-20" value="" style="endArrow=none;html=1;rounded=0;entryX=0.75;entryY=0;entryDx=0;entryDy=0;exitX=0.75;exitY=1;exitDx=0;exitDy=0;strokeWidth=4;" edge="1" parent="1">
          <mxGeometry width="50" height="50" relative="1" as="geometry">
            <mxPoint x="1185.6399999999999" y="-1734.3199999999997" as="sourcePoint" />
            <mxPoint x="1185.6399999999999" y="-1795.3199999999997" as="targetPoint" />
          </mxGeometry>
        </mxCell>
        <mxCell id="TwdX6o6YfYwtIvAuUACk-21" value="" style="endArrow=none;html=1;rounded=0;entryX=0.75;entryY=0;entryDx=0;entryDy=0;exitX=0.75;exitY=1;exitDx=0;exitDy=0;strokeWidth=4;" edge="1" parent="1">
          <mxGeometry width="50" height="50" relative="1" as="geometry">
            <mxPoint x="1158.31" y="-1735.0699999999997" as="sourcePoint" />
            <mxPoint x="1158.31" y="-1796.0699999999997" as="targetPoint" />
          </mxGeometry>
        </mxCell>
        <mxCell id="TwdX6o6YfYwtIvAuUACk-22" value="" style="endArrow=none;html=1;rounded=0;entryX=0.75;entryY=0;entryDx=0;entryDy=0;exitX=0.75;exitY=1;exitDx=0;exitDy=0;strokeWidth=4;" edge="1" parent="1">
          <mxGeometry width="50" height="50" relative="1" as="geometry">
            <mxPoint x="1210.97" y="-1612.9199999999996" as="sourcePoint" />
            <mxPoint x="1210.97" y="-1673.9199999999996" as="targetPoint" />
          </mxGeometry>
        </mxCell>
        <mxCell id="TwdX6o6YfYwtIvAuUACk-23" value="" style="endArrow=none;html=1;rounded=0;entryX=0.75;entryY=0;entryDx=0;entryDy=0;exitX=0.75;exitY=1;exitDx=0;exitDy=0;strokeWidth=4;" edge="1" parent="1">
          <mxGeometry width="50" height="50" relative="1" as="geometry">
            <mxPoint x="1238.97" y="-1613.1999999999998" as="sourcePoint" />
            <mxPoint x="1238.97" y="-1674.1999999999998" as="targetPoint" />
          </mxGeometry>
        </mxCell>
        <mxCell id="TwdX6o6YfYwtIvAuUACk-24" value="" style="endArrow=none;html=1;rounded=0;entryX=0.75;entryY=0;entryDx=0;entryDy=0;exitX=0.75;exitY=1;exitDx=0;exitDy=0;strokeWidth=4;" edge="1" parent="1">
          <mxGeometry width="50" height="50" relative="1" as="geometry">
            <mxPoint x="1183.97" y="-1611.1999999999998" as="sourcePoint" />
            <mxPoint x="1183.97" y="-1672.1999999999998" as="targetPoint" />
          </mxGeometry>
        </mxCell>
        <mxCell id="TwdX6o6YfYwtIvAuUACk-25" value="" style="endArrow=none;html=1;rounded=0;entryX=0.75;entryY=0;entryDx=0;entryDy=0;exitX=0.75;exitY=1;exitDx=0;exitDy=0;strokeWidth=4;" edge="1" parent="1">
          <mxGeometry width="50" height="50" relative="1" as="geometry">
            <mxPoint x="1156.6399999999999" y="-1611.9499999999998" as="sourcePoint" />
            <mxPoint x="1156.6399999999999" y="-1672.9499999999998" as="targetPoint" />
          </mxGeometry>
        </mxCell>
        <mxCell id="TwdX6o6YfYwtIvAuUACk-26" value="" style="rounded=1;whiteSpace=wrap;html=1;fillColor=none;strokeWidth=4;strokeColor=#000000;" vertex="1" parent="1">
          <mxGeometry x="1681.3799999999997" y="-2358.98" width="218.98" height="61" as="geometry" />
        </mxCell>
        <mxCell id="TwdX6o6YfYwtIvAuUACk-27" value="" style="rounded=1;whiteSpace=wrap;html=1;fillColor=none;strokeWidth=4;strokeColor=#000000;" vertex="1" parent="1">
          <mxGeometry x="1681.3799999999997" y="-2277.8599999999997" width="217.11" height="61" as="geometry" />
        </mxCell>
        <mxCell id="TwdX6o6YfYwtIvAuUACk-28" value="" style="endArrow=none;html=1;rounded=0;entryX=0.75;entryY=0;entryDx=0;entryDy=0;exitX=0.75;exitY=1;exitDx=0;exitDy=0;strokeWidth=4;" edge="1" parent="1" source="TwdX6o6YfYwtIvAuUACk-26" target="TwdX6o6YfYwtIvAuUACk-26">
          <mxGeometry width="50" height="50" relative="1" as="geometry">
            <mxPoint x="2329.3799999999997" y="-2302.7" as="sourcePoint" />
            <mxPoint x="2379.38" y="-2352.7" as="targetPoint" />
          </mxGeometry>
        </mxCell>
        <mxCell id="TwdX6o6YfYwtIvAuUACk-29" value="" style="endArrow=none;html=1;rounded=0;entryX=0.75;entryY=0;entryDx=0;entryDy=0;exitX=0.75;exitY=1;exitDx=0;exitDy=0;strokeWidth=4;" edge="1" parent="1">
          <mxGeometry width="50" height="50" relative="1" as="geometry">
            <mxPoint x="1873.3799999999997" y="-2297.98" as="sourcePoint" />
            <mxPoint x="1873.3799999999997" y="-2358.98" as="targetPoint" />
          </mxGeometry>
        </mxCell>
        <mxCell id="TwdX6o6YfYwtIvAuUACk-30" value="" style="endArrow=none;html=1;rounded=0;entryX=0.75;entryY=0;entryDx=0;entryDy=0;exitX=0.75;exitY=1;exitDx=0;exitDy=0;strokeWidth=4;" edge="1" parent="1">
          <mxGeometry width="50" height="50" relative="1" as="geometry">
            <mxPoint x="1818.3799999999997" y="-2295.98" as="sourcePoint" />
            <mxPoint x="1818.3799999999997" y="-2356.98" as="targetPoint" />
          </mxGeometry>
        </mxCell>
        <mxCell id="TwdX6o6YfYwtIvAuUACk-31" value="" style="endArrow=none;html=1;rounded=0;entryX=0.75;entryY=0;entryDx=0;entryDy=0;exitX=0.75;exitY=1;exitDx=0;exitDy=0;strokeWidth=4;" edge="1" parent="1">
          <mxGeometry width="50" height="50" relative="1" as="geometry">
            <mxPoint x="1791.0499999999997" y="-2296.73" as="sourcePoint" />
            <mxPoint x="1791.0499999999997" y="-2357.73" as="targetPoint" />
          </mxGeometry>
        </mxCell>
        <mxCell id="TwdX6o6YfYwtIvAuUACk-32" value="" style="endArrow=none;html=1;rounded=0;entryX=0.75;entryY=0;entryDx=0;entryDy=0;exitX=0.75;exitY=1;exitDx=0;exitDy=0;strokeWidth=4;" edge="1" parent="1">
          <mxGeometry width="50" height="50" relative="1" as="geometry">
            <mxPoint x="1843.71" y="-2218.58" as="sourcePoint" />
            <mxPoint x="1843.71" y="-2279.58" as="targetPoint" />
          </mxGeometry>
        </mxCell>
        <mxCell id="TwdX6o6YfYwtIvAuUACk-33" value="" style="endArrow=none;html=1;rounded=0;entryX=0.75;entryY=0;entryDx=0;entryDy=0;exitX=0.75;exitY=1;exitDx=0;exitDy=0;strokeWidth=4;" edge="1" parent="1">
          <mxGeometry width="50" height="50" relative="1" as="geometry">
            <mxPoint x="1871.71" y="-2218.8599999999997" as="sourcePoint" />
            <mxPoint x="1871.71" y="-2279.8599999999997" as="targetPoint" />
          </mxGeometry>
        </mxCell>
        <mxCell id="TwdX6o6YfYwtIvAuUACk-34" value="" style="endArrow=none;html=1;rounded=0;entryX=0.75;entryY=0;entryDx=0;entryDy=0;exitX=0.75;exitY=1;exitDx=0;exitDy=0;strokeWidth=4;" edge="1" parent="1">
          <mxGeometry width="50" height="50" relative="1" as="geometry">
            <mxPoint x="1816.71" y="-2216.8599999999997" as="sourcePoint" />
            <mxPoint x="1816.71" y="-2277.8599999999997" as="targetPoint" />
          </mxGeometry>
        </mxCell>
        <mxCell id="TwdX6o6YfYwtIvAuUACk-35" value="" style="endArrow=none;html=1;rounded=0;entryX=0.75;entryY=0;entryDx=0;entryDy=0;exitX=0.75;exitY=1;exitDx=0;exitDy=0;strokeWidth=4;" edge="1" parent="1">
          <mxGeometry width="50" height="50" relative="1" as="geometry">
            <mxPoint x="1789.3799999999997" y="-2217.6099999999997" as="sourcePoint" />
            <mxPoint x="1789.3799999999997" y="-2278.6099999999997" as="targetPoint" />
          </mxGeometry>
        </mxCell>
        <mxCell id="TwdX6o6YfYwtIvAuUACk-36" value="" style="rounded=1;whiteSpace=wrap;html=1;fillColor=none;strokeWidth=4;strokeColor=#000000;" vertex="1" parent="1">
          <mxGeometry x="1681.3799999999997" y="-2111.6999999999994" width="217.11" height="61" as="geometry" />
        </mxCell>
        <mxCell id="TwdX6o6YfYwtIvAuUACk-37" value="" style="endArrow=none;html=1;rounded=0;entryX=0.75;entryY=0;entryDx=0;entryDy=0;exitX=0.75;exitY=1;exitDx=0;exitDy=0;strokeWidth=4;" edge="1" parent="1">
          <mxGeometry width="50" height="50" relative="1" as="geometry">
            <mxPoint x="1843.71" y="-2052.42" as="sourcePoint" />
            <mxPoint x="1843.71" y="-2113.4199999999996" as="targetPoint" />
          </mxGeometry>
        </mxCell>
        <mxCell id="TwdX6o6YfYwtIvAuUACk-38" value="" style="endArrow=none;html=1;rounded=0;entryX=0.75;entryY=0;entryDx=0;entryDy=0;exitX=0.75;exitY=1;exitDx=0;exitDy=0;strokeWidth=4;" edge="1" parent="1">
          <mxGeometry width="50" height="50" relative="1" as="geometry">
            <mxPoint x="1871.71" y="-2052.7" as="sourcePoint" />
            <mxPoint x="1871.71" y="-2113.6999999999994" as="targetPoint" />
          </mxGeometry>
        </mxCell>
        <mxCell id="TwdX6o6YfYwtIvAuUACk-39" value="" style="endArrow=none;html=1;rounded=0;entryX=0.75;entryY=0;entryDx=0;entryDy=0;exitX=0.75;exitY=1;exitDx=0;exitDy=0;strokeWidth=4;" edge="1" parent="1">
          <mxGeometry width="50" height="50" relative="1" as="geometry">
            <mxPoint x="1816.71" y="-2050.7" as="sourcePoint" />
            <mxPoint x="1816.71" y="-2111.6999999999994" as="targetPoint" />
          </mxGeometry>
        </mxCell>
        <mxCell id="TwdX6o6YfYwtIvAuUACk-40" value="" style="endArrow=none;html=1;rounded=0;entryX=0.75;entryY=0;entryDx=0;entryDy=0;exitX=0.75;exitY=1;exitDx=0;exitDy=0;strokeWidth=4;" edge="1" parent="1">
          <mxGeometry width="50" height="50" relative="1" as="geometry">
            <mxPoint x="1789.3799999999997" y="-2051.45" as="sourcePoint" />
            <mxPoint x="1789.3799999999997" y="-2112.4499999999994" as="targetPoint" />
          </mxGeometry>
        </mxCell>
        <mxCell id="TwdX6o6YfYwtIvAuUACk-41" value="" style="shape=curlyBracket;whiteSpace=wrap;html=1;rounded=1;flipH=1;labelPosition=right;verticalLabelPosition=middle;align=left;verticalAlign=middle;strokeWidth=4;size=0;" vertex="1" parent="1">
          <mxGeometry x="1921.23" y="-2362.7" width="36" height="312" as="geometry" />
        </mxCell>
        <mxCell id="TwdX6o6YfYwtIvAuUACk-42" value="" style="rounded=1;whiteSpace=wrap;html=1;fillColor=#E6E6E6;strokeWidth=4;strokeColor=#000000;" vertex="1" parent="1">
          <mxGeometry x="1683.2499999999995" y="-1989.0399999999995" width="217.11" height="61" as="geometry" />
        </mxCell>
        <mxCell id="TwdX6o6YfYwtIvAuUACk-43" value="" style="endArrow=none;html=1;rounded=0;entryX=0.75;entryY=0;entryDx=0;entryDy=0;exitX=0.75;exitY=1;exitDx=0;exitDy=0;strokeWidth=4;" edge="1" parent="1">
          <mxGeometry width="50" height="50" relative="1" as="geometry">
            <mxPoint x="1845.58" y="-1929.7599999999998" as="sourcePoint" />
            <mxPoint x="1845.58" y="-1990.7599999999998" as="targetPoint" />
          </mxGeometry>
        </mxCell>
        <mxCell id="TwdX6o6YfYwtIvAuUACk-44" value="" style="endArrow=none;html=1;rounded=0;entryX=0.75;entryY=0;entryDx=0;entryDy=0;exitX=0.75;exitY=1;exitDx=0;exitDy=0;strokeWidth=4;" edge="1" parent="1">
          <mxGeometry width="50" height="50" relative="1" as="geometry">
            <mxPoint x="1873.58" y="-1930.0399999999995" as="sourcePoint" />
            <mxPoint x="1873.58" y="-1991.0399999999995" as="targetPoint" />
          </mxGeometry>
        </mxCell>
        <mxCell id="TwdX6o6YfYwtIvAuUACk-45" value="" style="endArrow=none;html=1;rounded=0;entryX=0.75;entryY=0;entryDx=0;entryDy=0;exitX=0.75;exitY=1;exitDx=0;exitDy=0;strokeWidth=4;" edge="1" parent="1">
          <mxGeometry width="50" height="50" relative="1" as="geometry">
            <mxPoint x="1818.58" y="-1928.0399999999995" as="sourcePoint" />
            <mxPoint x="1818.58" y="-1989.0399999999995" as="targetPoint" />
          </mxGeometry>
        </mxCell>
        <mxCell id="TwdX6o6YfYwtIvAuUACk-46" value="" style="endArrow=none;html=1;rounded=0;entryX=0.75;entryY=0;entryDx=0;entryDy=0;exitX=0.75;exitY=1;exitDx=0;exitDy=0;strokeWidth=4;" edge="1" parent="1">
          <mxGeometry width="50" height="50" relative="1" as="geometry">
            <mxPoint x="1791.2499999999995" y="-1928.7899999999995" as="sourcePoint" />
            <mxPoint x="1791.2499999999995" y="-1989.7899999999995" as="targetPoint" />
          </mxGeometry>
        </mxCell>
        <mxCell id="TwdX6o6YfYwtIvAuUACk-47" value="" style="rounded=0;whiteSpace=wrap;html=1;fillColor=#E6E6E6;strokeColor=none;" vertex="1" parent="1">
          <mxGeometry x="1669.38" y="-2365.7" width="27" height="456" as="geometry" />
        </mxCell>
        <mxCell id="TwdX6o6YfYwtIvAuUACk-48" style="edgeStyle=orthogonalEdgeStyle;rounded=0;orthogonalLoop=1;jettySize=auto;html=1;strokeWidth=4;" edge="1" parent="1">
          <mxGeometry relative="1" as="geometry">
            <mxPoint x="1983" y="-1810" as="targetPoint" />
            <mxPoint x="1960.209971929811" y="-1959.3300000000002" as="sourcePoint" />
            <Array as="points">
              <mxPoint x="1983" y="-1959" />
              <mxPoint x="1983" y="-1822" />
            </Array>
          </mxGeometry>
        </mxCell>
        <mxCell id="TwdX6o6YfYwtIvAuUACk-49" value="" style="ellipse;whiteSpace=wrap;html=1;aspect=fixed;fillColor=none;strokeWidth=4;strokeColor=#000000;" vertex="1" parent="1">
          <mxGeometry x="1900.3600000000001" y="-1989.04" width="57" height="57" as="geometry" />
        </mxCell>
        <mxCell id="TwdX6o6YfYwtIvAuUACk-50" value="" style="ellipse;whiteSpace=wrap;html=1;aspect=fixed;fillColor=none;strokeWidth=4;strokeColor=#000000;" vertex="1" parent="1">
          <mxGeometry x="1957.23" y="-2233.7" width="57" height="57" as="geometry" />
        </mxCell>
        <mxCell id="TwdX6o6YfYwtIvAuUACk-51" value="" style="endArrow=classic;html=1;rounded=0;strokeWidth=4;strokeColor=#000000;" edge="1" parent="1">
          <mxGeometry width="50" height="50" relative="1" as="geometry">
            <mxPoint x="1967.48" y="-2163.09" as="sourcePoint" />
            <mxPoint x="2014.23" y="-2250.3199999999997" as="targetPoint" />
          </mxGeometry>
        </mxCell>
        <mxCell id="TwdX6o6YfYwtIvAuUACk-52" style="edgeStyle=orthogonalEdgeStyle;rounded=0;orthogonalLoop=1;jettySize=auto;html=1;strokeWidth=4;" edge="1" parent="1" source="TwdX6o6YfYwtIvAuUACk-53" target="TwdX6o6YfYwtIvAuUACk-8">
          <mxGeometry relative="1" as="geometry">
            <Array as="points">
              <mxPoint x="998" y="-1707.6999999999998" />
              <mxPoint x="998" y="-1766.6999999999998" />
            </Array>
          </mxGeometry>
        </mxCell>
        <mxCell id="TwdX6o6YfYwtIvAuUACk-53" value="" style="sketch=0;outlineConnect=0;fontColor=#232F3E;gradientColor=none;fillColor=#4D4D4D;strokeColor=none;dashed=0;verticalLabelPosition=bottom;verticalAlign=top;align=center;html=1;fontSize=14;fontStyle=0;pointerEvents=1;shape=mxgraph.aws4.sagemaker_model;fontFamily=Garamond;spacing=3;" vertex="1" parent="1">
          <mxGeometry x="835.8299999999999" y="-1774.4599999999996" width="120" height="140.83" as="geometry" />
        </mxCell>
        <mxCell id="TwdX6o6YfYwtIvAuUACk-54" value="" style="sketch=0;outlineConnect=0;fontColor=#232F3E;gradientColor=none;fillColor=#4D4D4D;strokeColor=none;dashed=0;verticalLabelPosition=bottom;verticalAlign=top;align=center;html=1;fontSize=14;fontStyle=0;pointerEvents=1;shape=mxgraph.aws4.sagemaker_model;fontFamily=Garamond;spacing=3;" vertex="1" parent="1">
          <mxGeometry x="1434.31" y="-2305.77" width="120" height="140.83" as="geometry" />
        </mxCell>
        <mxCell id="TwdX6o6YfYwtIvAuUACk-55" value="" style="rounded=1;whiteSpace=wrap;html=1;fillColor=none;strokeWidth=2;dashed=1;arcSize=0;" vertex="1" parent="1">
          <mxGeometry x="1669.38" y="-2389.7" width="372" height="372" as="geometry" />
        </mxCell>
        <mxCell id="TwdX6o6YfYwtIvAuUACk-56" style="edgeStyle=orthogonalEdgeStyle;rounded=0;orthogonalLoop=1;jettySize=auto;html=1;strokeWidth=4;" edge="1" parent="1" source="TwdX6o6YfYwtIvAuUACk-54">
          <mxGeometry relative="1" as="geometry">
            <mxPoint x="1669" y="-2234.7" as="targetPoint" />
            <Array as="points">
              <mxPoint x="1669" y="-2234.7" />
            </Array>
          </mxGeometry>
        </mxCell>
        <mxCell id="TwdX6o6YfYwtIvAuUACk-57" style="edgeStyle=orthogonalEdgeStyle;rounded=0;orthogonalLoop=1;jettySize=auto;html=1;entryX=-0.162;entryY=0.893;entryDx=0;entryDy=0;entryPerimeter=0;strokeWidth=4;" edge="1" parent="1" source="TwdX6o6YfYwtIvAuUACk-54" target="TwdX6o6YfYwtIvAuUACk-47">
          <mxGeometry relative="1" as="geometry">
            <Array as="points">
              <mxPoint x="1611" y="-2234.7" />
              <mxPoint x="1611" y="-1958.6999999999998" />
            </Array>
          </mxGeometry>
        </mxCell>
        <mxCell id="TwdX6o6YfYwtIvAuUACk-58" style="edgeStyle=orthogonalEdgeStyle;rounded=0;orthogonalLoop=1;jettySize=auto;html=1;entryX=0.153;entryY=0.825;entryDx=0;entryDy=0;entryPerimeter=0;strokeWidth=4;" edge="1" parent="1" source="TwdX6o6YfYwtIvAuUACk-53" target="TwdX6o6YfYwtIvAuUACk-11">
          <mxGeometry relative="1" as="geometry">
            <Array as="points">
              <mxPoint x="998" y="-1707.6999999999998" />
              <mxPoint x="998" y="-1638.6999999999998" />
            </Array>
          </mxGeometry>
        </mxCell>
        <mxCell id="TwdX6o6YfYwtIvAuUACk-59" value="" style="edgeStyle=orthogonalEdgeStyle;rounded=0;orthogonalLoop=1;jettySize=auto;html=1;exitX=1;exitY=0.5;exitDx=0;exitDy=0;strokeWidth=4;" edge="1" parent="1" source="TwdX6o6YfYwtIvAuUACk-13" target="TwdX6o6YfYwtIvAuUACk-54">
          <mxGeometry relative="1" as="geometry">
            <mxPoint x="1394" y="-1850" as="targetPoint" />
            <mxPoint x="1325" y="-1766.6999999999998" as="sourcePoint" />
            <Array as="points">
              <mxPoint x="1380" y="-1767" />
              <mxPoint x="1380" y="-2235" />
            </Array>
          </mxGeometry>
        </mxCell>
        <mxCell id="TwdX6o6YfYwtIvAuUACk-60" value="" style="shape=mxgraph.networks2.icon;fillColor=#EDEDED;strokeColor=#4D4D4D;gradientColor=#5B6163;network2IconShadow=1;network2bgFillColor=none;network2Icon=mxgraph.networks2.antenna;network2IconYOffset=0.0004;network2IconW=0.508;network2IconH=0.9997;strokeWidth=1;" vertex="1" parent="1">
          <mxGeometry x="1084.54" y="-2164.9399999999996" width="147.19" height="302.66" as="geometry" />
        </mxCell>
        <mxCell id="TwdX6o6YfYwtIvAuUACk-62" value="&lt;font style=&quot;color: rgb(255, 255, 255); font-size: 34px;&quot;&gt;First Layer in MD&lt;/font&gt;" style="rounded=1;whiteSpace=wrap;html=1;arcSize=50;fillColor=#4495D1;strokeColor=none;fontSize=20;fontStyle=0;fontFamily=Garamond;spacing=3;" vertex="1" parent="1">
          <mxGeometry x="837.13" y="-1590.19" width="276.19" height="48" as="geometry" />
        </mxCell>
        <mxCell id="TwdX6o6YfYwtIvAuUACk-63" value="&lt;font style=&quot;color: rgb(255, 255, 255); font-size: 34px;&quot;&gt;Second Layer in EN&lt;/font&gt;" style="rounded=1;whiteSpace=wrap;html=1;arcSize=50;fillColor=#4495D1;strokeColor=none;fontSize=20;fontStyle=0;fontFamily=Garamond;spacing=3;" vertex="1" parent="1">
          <mxGeometry x="1497.8300000000002" y="-1900.0000000000002" width="312.17" height="48" as="geometry" />
        </mxCell>
        <mxCell id="TwdX6o6YfYwtIvAuUACk-64" style="edgeStyle=orthogonalEdgeStyle;rounded=0;orthogonalLoop=1;jettySize=auto;html=1;entryX=-0.001;entryY=0.139;entryDx=0;entryDy=0;entryPerimeter=0;strokeWidth=4;" edge="1" parent="1" target="TwdX6o6YfYwtIvAuUACk-55">
          <mxGeometry relative="1" as="geometry">
            <Array as="points">
              <mxPoint x="1287" y="-2338" />
              <mxPoint x="1287" y="-2338" />
            </Array>
            <mxPoint x="890" y="-2338" as="sourcePoint" />
          </mxGeometry>
        </mxCell>
        <mxCell id="TwdX6o6YfYwtIvAuUACk-65" style="edgeStyle=orthogonalEdgeStyle;rounded=0;orthogonalLoop=1;jettySize=auto;html=1;strokeWidth=5;fillColor=#dae8fc;strokeColor=#0A74CF;" edge="1" parent="1" source="TwdX6o6YfYwtIvAuUACk-67" target="TwdX6o6YfYwtIvAuUACk-53">
          <mxGeometry relative="1" as="geometry">
            <Array as="points">
              <mxPoint x="921" y="-2278" />
              <mxPoint x="921" y="-2278" />
            </Array>
          </mxGeometry>
        </mxCell>
        <mxCell id="TwdX6o6YfYwtIvAuUACk-66" style="edgeStyle=orthogonalEdgeStyle;rounded=0;orthogonalLoop=1;jettySize=auto;html=1;strokeWidth=5;fillColor=#dae8fc;strokeColor=#0A74CF;" edge="1" parent="1" source="TwdX6o6YfYwtIvAuUACk-67" target="TwdX6o6YfYwtIvAuUACk-54">
          <mxGeometry relative="1" as="geometry">
            <Array as="points">
              <mxPoint x="1494" y="-2434" />
              <mxPoint x="1494" y="-2434" />
            </Array>
          </mxGeometry>
        </mxCell>
        <mxCell id="TwdX6o6YfYwtIvAuUACk-67" value="&lt;font style=&quot;color: rgb(255, 255, 255); font-size: 34px;&quot;&gt;Environment&lt;/font&gt;" style="rounded=1;whiteSpace=wrap;html=1;arcSize=50;fillColor=#4495D1;strokeColor=none;fontSize=20;fontStyle=0;fontFamily=Garamond;spacing=3;" vertex="1" parent="1">
          <mxGeometry x="732.26" y="-2530" width="1417.74" height="48" as="geometry" />
        </mxCell>
        <mxCell id="TwdX6o6YfYwtIvAuUACk-68" value="" style="ellipse;whiteSpace=wrap;html=1;aspect=fixed;fillColor=#0D0D0D;strokeWidth=4;strokeColor=#000000;" vertex="1" parent="1">
          <mxGeometry x="1375.31" y="-1609.19" width="12" height="12" as="geometry" />
        </mxCell>
        <mxCell id="TwdX6o6YfYwtIvAuUACk-69" value="" style="ellipse;whiteSpace=wrap;html=1;aspect=fixed;fillColor=#0D0D0D;strokeWidth=4;strokeColor=#000000;" vertex="1" parent="1">
          <mxGeometry x="1409.05" y="-1609.19" width="12" height="12" as="geometry" />
        </mxCell>
        <mxCell id="TwdX6o6YfYwtIvAuUACk-70" value="" style="ellipse;whiteSpace=wrap;html=1;aspect=fixed;fillColor=#0D0D0D;strokeWidth=4;strokeColor=#000000;" vertex="1" parent="1">
          <mxGeometry x="1440.96" y="-1609.19" width="12" height="12" as="geometry" />
        </mxCell>
        <mxCell id="TwdX6o6YfYwtIvAuUACk-73" style="edgeStyle=orthogonalEdgeStyle;rounded=0;orthogonalLoop=1;jettySize=auto;html=1;strokeWidth=3;" edge="1" parent="1" source="TwdX6o6YfYwtIvAuUACk-74" target="TwdX6o6YfYwtIvAuUACk-182">
          <mxGeometry relative="1" as="geometry">
            <mxPoint x="829.7" y="-2243.55" as="targetPoint" />
            <Array as="points">
              <mxPoint x="957.7" y="-2203.55" />
              <mxPoint x="829.7" y="-2203.55" />
            </Array>
            <mxPoint x="957.9007722007725" y="-2180.63" as="sourcePoint" />
          </mxGeometry>
        </mxCell>
        <mxCell id="TwdX6o6YfYwtIvAuUACk-74" value="" style="sketch=0;pointerEvents=1;shadow=0;dashed=0;html=1;strokeColor=none;fillColor=#434445;aspect=fixed;labelPosition=center;verticalLabelPosition=bottom;verticalAlign=top;align=center;outlineConnect=0;shape=mxgraph.vvd.phone;" vertex="1" parent="1">
          <mxGeometry x="933.0799999999999" y="-2177.21" width="49.56" height="84" as="geometry" />
        </mxCell>
        <mxCell id="TwdX6o6YfYwtIvAuUACk-75" style="edgeStyle=orthogonalEdgeStyle;rounded=0;orthogonalLoop=1;jettySize=auto;html=1;strokeWidth=3;" edge="1" parent="1" source="TwdX6o6YfYwtIvAuUACk-76" target="TwdX6o6YfYwtIvAuUACk-182">
          <mxGeometry relative="1" as="geometry">
            <mxPoint x="831.53" y="-2241.21" as="targetPoint" />
            <Array as="points">
              <mxPoint x="884.7" y="-2203.55" />
              <mxPoint x="829.7" y="-2203.55" />
            </Array>
          </mxGeometry>
        </mxCell>
        <mxCell id="TwdX6o6YfYwtIvAuUACk-76" value="" style="sketch=0;pointerEvents=1;shadow=0;dashed=0;html=1;strokeColor=none;fillColor=#434445;aspect=fixed;labelPosition=center;verticalLabelPosition=bottom;verticalAlign=top;align=center;outlineConnect=0;shape=mxgraph.vvd.phone;" vertex="1" parent="1">
          <mxGeometry x="859.6700000000001" y="-2177.21" width="49.56" height="84" as="geometry" />
        </mxCell>
        <mxCell id="TwdX6o6YfYwtIvAuUACk-77" value="" style="sketch=0;pointerEvents=1;shadow=0;dashed=0;html=1;strokeColor=none;fillColor=#434445;aspect=fixed;labelPosition=center;verticalLabelPosition=bottom;verticalAlign=top;align=center;outlineConnect=0;shape=mxgraph.vvd.phone;" vertex="1" parent="1">
          <mxGeometry x="704.97" y="-2177.21" width="49.56" height="84" as="geometry" />
        </mxCell>
        <mxCell id="TwdX6o6YfYwtIvAuUACk-78" style="edgeStyle=orthogonalEdgeStyle;rounded=0;orthogonalLoop=1;jettySize=auto;html=1;strokeWidth=3;" edge="1" parent="1" source="TwdX6o6YfYwtIvAuUACk-77" target="TwdX6o6YfYwtIvAuUACk-182">
          <mxGeometry relative="1" as="geometry">
            <Array as="points">
              <mxPoint x="729.7" y="-2203.55" />
              <mxPoint x="829.7" y="-2203.55" />
            </Array>
            <mxPoint x="729.800386100386" y="-2188.33" as="sourcePoint" />
            <mxPoint x="829.7" y="-2244.55" as="targetPoint" />
          </mxGeometry>
        </mxCell>
        <mxCell id="TwdX6o6YfYwtIvAuUACk-85" value="&lt;font style=&quot;font-size: 29px;&quot;&gt;&lt;b style=&quot;color: rgb(10, 116, 207);&quot;&gt;Reward&lt;/b&gt;&lt;/font&gt;" style="text;html=1;align=center;verticalAlign=middle;whiteSpace=wrap;rounded=0;rotation=-90;" vertex="1" parent="1">
          <mxGeometry x="864.5" y="-1973.16" width="60" height="30" as="geometry" />
        </mxCell>
        <mxCell id="TwdX6o6YfYwtIvAuUACk-86" value="&lt;font style=&quot;font-size: 29px;&quot;&gt;&lt;b style=&quot;color: rgb(10, 116, 207);&quot;&gt;Reward&lt;/b&gt;&lt;/font&gt;" style="text;html=1;align=center;verticalAlign=middle;whiteSpace=wrap;rounded=0;rotation=-90;" vertex="1" parent="1">
          <mxGeometry x="1434.6" y="-2426.98" width="60" height="30" as="geometry" />
        </mxCell>
        <mxCell id="TwdX6o6YfYwtIvAuUACk-182" value="" style="shape=mxgraph.networks2.icon;fillColor=#EDEDED;strokeColor=#4D4D4D;gradientColor=#5B6163;network2IconShadow=1;network2bgFillColor=none;network2Icon=mxgraph.networks2.antenna;network2IconYOffset=0.0004;network2IconW=0.508;network2IconH=0.9997;strokeWidth=1;" vertex="1" parent="1">
          <mxGeometry x="773.7" y="-2445.15" width="111.87" height="205.86" as="geometry" />
        </mxCell>
        <mxCell id="TwdX6o6YfYwtIvAuUACk-185" value="" style="ellipse;whiteSpace=wrap;html=1;aspect=fixed;fillColor=#0D0D0D;strokeWidth=1;strokeColor=#000000;" vertex="1" parent="1">
          <mxGeometry x="769.7" y="-2141.21" width="12" height="12" as="geometry" />
        </mxCell>
        <mxCell id="TwdX6o6YfYwtIvAuUACk-186" value="" style="ellipse;whiteSpace=wrap;html=1;aspect=fixed;fillColor=#0D0D0D;strokeWidth=1;strokeColor=#000000;" vertex="1" parent="1">
          <mxGeometry x="803.44" y="-2141.21" width="12" height="12" as="geometry" />
        </mxCell>
        <mxCell id="TwdX6o6YfYwtIvAuUACk-187" value="" style="ellipse;whiteSpace=wrap;html=1;aspect=fixed;fillColor=#0D0D0D;strokeWidth=1;strokeColor=#000000;" vertex="1" parent="1">
          <mxGeometry x="835.3500000000001" y="-2141.21" width="12" height="12" as="geometry" />
        </mxCell>
        <mxCell id="TwdX6o6YfYwtIvAuUACk-191" value="" style="ellipse;whiteSpace=wrap;html=1;dashed=1;dashPattern=8 8;strokeWidth=3;fillColor=none;gradientColor=default;strokeColor=default;" vertex="1" parent="1">
          <mxGeometry x="1810" y="-1657.13" width="360" height="254.02" as="geometry" />
        </mxCell>
        <mxCell id="TwdX6o6YfYwtIvAuUACk-192" style="edgeStyle=orthogonalEdgeStyle;rounded=0;orthogonalLoop=1;jettySize=auto;html=1;strokeWidth=3;" edge="1" parent="1" source="TwdX6o6YfYwtIvAuUACk-193" target="TwdX6o6YfYwtIvAuUACk-198">
          <mxGeometry relative="1" as="geometry">
            <mxPoint x="1983.79" y="-1625.1100000000001" as="targetPoint" />
            <Array as="points">
              <mxPoint x="2111.79" y="-1585.1100000000001" />
              <mxPoint x="1983.79" y="-1585.1100000000001" />
            </Array>
            <mxPoint x="2111.9907722007724" y="-1562.19" as="sourcePoint" />
          </mxGeometry>
        </mxCell>
        <mxCell id="TwdX6o6YfYwtIvAuUACk-193" value="" style="sketch=0;pointerEvents=1;shadow=0;dashed=0;html=1;strokeColor=none;fillColor=#434445;aspect=fixed;labelPosition=center;verticalLabelPosition=bottom;verticalAlign=top;align=center;outlineConnect=0;shape=mxgraph.vvd.phone;" vertex="1" parent="1">
          <mxGeometry x="2087.17" y="-1558.77" width="49.56" height="84" as="geometry" />
        </mxCell>
        <mxCell id="TwdX6o6YfYwtIvAuUACk-194" style="edgeStyle=orthogonalEdgeStyle;rounded=0;orthogonalLoop=1;jettySize=auto;html=1;strokeWidth=3;" edge="1" parent="1" source="TwdX6o6YfYwtIvAuUACk-195" target="TwdX6o6YfYwtIvAuUACk-198">
          <mxGeometry relative="1" as="geometry">
            <mxPoint x="1985.62" y="-1622.77" as="targetPoint" />
            <Array as="points">
              <mxPoint x="2038.79" y="-1585.1100000000001" />
              <mxPoint x="1983.79" y="-1585.1100000000001" />
            </Array>
          </mxGeometry>
        </mxCell>
        <mxCell id="TwdX6o6YfYwtIvAuUACk-195" value="" style="sketch=0;pointerEvents=1;shadow=0;dashed=0;html=1;strokeColor=none;fillColor=#434445;aspect=fixed;labelPosition=center;verticalLabelPosition=bottom;verticalAlign=top;align=center;outlineConnect=0;shape=mxgraph.vvd.phone;" vertex="1" parent="1">
          <mxGeometry x="2013.76" y="-1558.77" width="49.56" height="84" as="geometry" />
        </mxCell>
        <mxCell id="TwdX6o6YfYwtIvAuUACk-196" value="" style="sketch=0;pointerEvents=1;shadow=0;dashed=0;html=1;strokeColor=none;fillColor=#434445;aspect=fixed;labelPosition=center;verticalLabelPosition=bottom;verticalAlign=top;align=center;outlineConnect=0;shape=mxgraph.vvd.phone;" vertex="1" parent="1">
          <mxGeometry x="1859.06" y="-1558.77" width="49.56" height="84" as="geometry" />
        </mxCell>
        <mxCell id="TwdX6o6YfYwtIvAuUACk-197" style="edgeStyle=orthogonalEdgeStyle;rounded=0;orthogonalLoop=1;jettySize=auto;html=1;strokeWidth=3;" edge="1" parent="1" source="TwdX6o6YfYwtIvAuUACk-196" target="TwdX6o6YfYwtIvAuUACk-198">
          <mxGeometry relative="1" as="geometry">
            <Array as="points">
              <mxPoint x="1883.79" y="-1585.1100000000001" />
              <mxPoint x="1983.79" y="-1585.1100000000001" />
            </Array>
            <mxPoint x="1883.890386100386" y="-1569.8899999999999" as="sourcePoint" />
            <mxPoint x="1983.79" y="-1626.1100000000001" as="targetPoint" />
          </mxGeometry>
        </mxCell>
        <mxCell id="TwdX6o6YfYwtIvAuUACk-198" value="" style="shape=mxgraph.networks2.icon;fillColor=#EDEDED;strokeColor=#4D4D4D;gradientColor=#5B6163;network2IconShadow=1;network2bgFillColor=none;network2Icon=mxgraph.networks2.antenna;network2IconYOffset=0.0004;network2IconW=0.508;network2IconH=0.9997;strokeWidth=1;" vertex="1" parent="1">
          <mxGeometry x="1927.79" y="-1826.71" width="111.87" height="205.86" as="geometry" />
        </mxCell>
        <mxCell id="TwdX6o6YfYwtIvAuUACk-199" value="" style="ellipse;whiteSpace=wrap;html=1;aspect=fixed;fillColor=#0D0D0D;strokeWidth=1;strokeColor=#000000;" vertex="1" parent="1">
          <mxGeometry x="1923.79" y="-1522.77" width="12" height="12" as="geometry" />
        </mxCell>
        <mxCell id="TwdX6o6YfYwtIvAuUACk-200" value="" style="ellipse;whiteSpace=wrap;html=1;aspect=fixed;fillColor=#0D0D0D;strokeWidth=1;strokeColor=#000000;" vertex="1" parent="1">
          <mxGeometry x="1957.53" y="-1522.77" width="12" height="12" as="geometry" />
        </mxCell>
        <mxCell id="TwdX6o6YfYwtIvAuUACk-201" value="" style="ellipse;whiteSpace=wrap;html=1;aspect=fixed;fillColor=#0D0D0D;strokeWidth=1;strokeColor=#000000;" vertex="1" parent="1">
          <mxGeometry x="1989.44" y="-1522.77" width="12" height="12" as="geometry" />
        </mxCell>
        <mxCell id="TwdX6o6YfYwtIvAuUACk-242" style="edgeStyle=orthogonalEdgeStyle;rounded=0;orthogonalLoop=1;jettySize=auto;html=1;strokeWidth=4;exitX=0.5;exitY=0;exitDx=0;exitDy=0;" edge="1" parent="1" source="TwdX6o6YfYwtIvAuUACk-313" target="TwdX6o6YfYwtIvAuUACk-295">
          <mxGeometry relative="1" as="geometry">
            <mxPoint x="1336.8259099999998" y="-525.6459599999998" as="targetPoint" />
            <Array as="points">
              <mxPoint x="1567.74" y="-329" />
              <mxPoint x="1567.74" y="-437" />
              <mxPoint x="1347.74" y="-437" />
              <mxPoint x="1347.74" y="-684" />
            </Array>
            <mxPoint x="1642.74" y="-354.34000000000015" as="sourcePoint" />
          </mxGeometry>
        </mxCell>
        <mxCell id="TwdX6o6YfYwtIvAuUACk-243" style="edgeStyle=orthogonalEdgeStyle;rounded=0;orthogonalLoop=1;jettySize=auto;html=1;strokeWidth=4;exitX=0.5;exitY=0;exitDx=0;exitDy=0;" edge="1" parent="1" source="TwdX6o6YfYwtIvAuUACk-316" target="TwdX6o6YfYwtIvAuUACk-295">
          <mxGeometry relative="1" as="geometry">
            <Array as="points">
              <mxPoint x="1471.74" y="-437" />
              <mxPoint x="1347.74" y="-437" />
              <mxPoint x="1347.74" y="-684" />
            </Array>
            <mxPoint x="1338.2978100000003" y="-524.1326599999993" as="targetPoint" />
            <mxPoint x="1494.74" y="-354.34000000000015" as="sourcePoint" />
          </mxGeometry>
        </mxCell>
        <mxCell id="TwdX6o6YfYwtIvAuUACk-244" value="" style="rounded=1;whiteSpace=wrap;html=1;strokeWidth=3;dashed=1;strokeColor=none;fillColor=#E6E6E6;" vertex="1" parent="1">
          <mxGeometry x="749.74" y="-502.03999999999996" width="566.64" height="278.04" as="geometry" />
        </mxCell>
        <mxCell id="TwdX6o6YfYwtIvAuUACk-245" value="" style="rounded=1;whiteSpace=wrap;html=1;fillColor=none;strokeWidth=4;strokeColor=#000000;" vertex="1" parent="1">
          <mxGeometry x="1016.3799999999999" y="-467.3199999999997" width="218.98" height="61" as="geometry" />
        </mxCell>
        <mxCell id="TwdX6o6YfYwtIvAuUACk-246" value="" style="rounded=1;whiteSpace=wrap;html=1;fillColor=none;strokeWidth=4;strokeColor=#000000;" vertex="1" parent="1">
          <mxGeometry x="1016.3799999999999" y="-342.1999999999998" width="217.11" height="61" as="geometry" />
        </mxCell>
        <mxCell id="TwdX6o6YfYwtIvAuUACk-247" value="" style="ellipse;whiteSpace=wrap;html=1;aspect=fixed;fillColor=none;strokeWidth=4;strokeColor=#000000;" vertex="1" parent="1">
          <mxGeometry x="1233.49" y="-340.1999999999998" width="57" height="57" as="geometry" />
        </mxCell>
        <mxCell id="TwdX6o6YfYwtIvAuUACk-248" value="" style="rounded=0;whiteSpace=wrap;html=1;fillColor=#E6E6E6;strokeColor=none;" vertex="1" parent="1">
          <mxGeometry x="1004.3799999999999" y="-474.03999999999996" width="27" height="200" as="geometry" />
        </mxCell>
        <mxCell id="TwdX6o6YfYwtIvAuUACk-249" value="" style="endArrow=classic;html=1;rounded=0;strokeWidth=4;strokeColor=#000000;" edge="1" parent="1">
          <mxGeometry width="50" height="50" relative="1" as="geometry">
            <mxPoint x="1241.61" y="-272.1500000000001" as="sourcePoint" />
            <mxPoint x="1288.36" y="-359.37999999999965" as="targetPoint" />
          </mxGeometry>
        </mxCell>
        <mxCell id="TwdX6o6YfYwtIvAuUACk-250" value="" style="ellipse;whiteSpace=wrap;html=1;aspect=fixed;fillColor=none;strokeWidth=4;strokeColor=#000000;" vertex="1" parent="1">
          <mxGeometry x="1235.36" y="-465.3199999999997" width="57" height="57" as="geometry" />
        </mxCell>
        <mxCell id="TwdX6o6YfYwtIvAuUACk-251" value="" style="group" vertex="1" connectable="0" parent="1">
          <mxGeometry x="717.74" y="-320" width="68" height="137.69" as="geometry" />
        </mxCell>
        <mxCell id="TwdX6o6YfYwtIvAuUACk-252" value="" style="sketch=0;pointerEvents=1;shadow=0;dashed=0;html=1;strokeColor=none;fillColor=#434445;aspect=fixed;labelPosition=center;verticalLabelPosition=bottom;verticalAlign=top;align=center;outlineConnect=0;shape=mxgraph.vvd.phone;" vertex="1" parent="TwdX6o6YfYwtIvAuUACk-251">
          <mxGeometry width="68" height="115.25162561576354" as="geometry" />
        </mxCell>
        <mxCell id="TwdX6o6YfYwtIvAuUACk-253" value="" style="rounded=1;whiteSpace=wrap;html=1;arcSize=7;strokeColor=none;" vertex="1" parent="TwdX6o6YfYwtIvAuUACk-251">
          <mxGeometry x="4.69" y="4.8" width="58.65" height="95.2" as="geometry" />
        </mxCell>
        <mxCell id="TwdX6o6YfYwtIvAuUACk-254" value="" style="rounded=1;whiteSpace=wrap;html=1;strokeWidth=5;dashed=1;strokeColor=none;fillColor=#E6E6E6;arcSize=3;" vertex="1" parent="1">
          <mxGeometry x="1197.74" y="-1096.98" width="897" height="556.98" as="geometry" />
        </mxCell>
        <mxCell id="TwdX6o6YfYwtIvAuUACk-255" value="" style="endArrow=none;html=1;rounded=0;entryX=0.75;entryY=0;entryDx=0;entryDy=0;exitX=0.75;exitY=1;exitDx=0;exitDy=0;strokeWidth=4;" edge="1" parent="1" source="TwdX6o6YfYwtIvAuUACk-245" target="TwdX6o6YfYwtIvAuUACk-245">
          <mxGeometry width="50" height="50" relative="1" as="geometry">
            <mxPoint x="1664.3799999999999" y="-411.03999999999996" as="sourcePoint" />
            <mxPoint x="1714.3799999999999" y="-461.03999999999996" as="targetPoint" />
          </mxGeometry>
        </mxCell>
        <mxCell id="TwdX6o6YfYwtIvAuUACk-256" value="" style="endArrow=none;html=1;rounded=0;entryX=0.75;entryY=0;entryDx=0;entryDy=0;exitX=0.75;exitY=1;exitDx=0;exitDy=0;strokeWidth=4;" edge="1" parent="1">
          <mxGeometry width="50" height="50" relative="1" as="geometry">
            <mxPoint x="1208.3799999999999" y="-406.3199999999997" as="sourcePoint" />
            <mxPoint x="1208.3799999999999" y="-467.3199999999997" as="targetPoint" />
          </mxGeometry>
        </mxCell>
        <mxCell id="TwdX6o6YfYwtIvAuUACk-257" value="" style="endArrow=none;html=1;rounded=0;entryX=0.75;entryY=0;entryDx=0;entryDy=0;exitX=0.75;exitY=1;exitDx=0;exitDy=0;strokeWidth=4;" edge="1" parent="1">
          <mxGeometry width="50" height="50" relative="1" as="geometry">
            <mxPoint x="1153.3799999999999" y="-404.3199999999997" as="sourcePoint" />
            <mxPoint x="1153.3799999999999" y="-465.3199999999997" as="targetPoint" />
          </mxGeometry>
        </mxCell>
        <mxCell id="TwdX6o6YfYwtIvAuUACk-258" value="" style="endArrow=none;html=1;rounded=0;entryX=0.75;entryY=0;entryDx=0;entryDy=0;exitX=0.75;exitY=1;exitDx=0;exitDy=0;strokeWidth=4;" edge="1" parent="1">
          <mxGeometry width="50" height="50" relative="1" as="geometry">
            <mxPoint x="1126.05" y="-405.0699999999997" as="sourcePoint" />
            <mxPoint x="1126.05" y="-466.0699999999997" as="targetPoint" />
          </mxGeometry>
        </mxCell>
        <mxCell id="TwdX6o6YfYwtIvAuUACk-259" value="" style="endArrow=none;html=1;rounded=0;entryX=0.75;entryY=0;entryDx=0;entryDy=0;exitX=0.75;exitY=1;exitDx=0;exitDy=0;strokeWidth=4;" edge="1" parent="1">
          <mxGeometry width="50" height="50" relative="1" as="geometry">
            <mxPoint x="1178.71" y="-282.9199999999996" as="sourcePoint" />
            <mxPoint x="1178.71" y="-343.9199999999996" as="targetPoint" />
          </mxGeometry>
        </mxCell>
        <mxCell id="TwdX6o6YfYwtIvAuUACk-260" value="" style="endArrow=none;html=1;rounded=0;entryX=0.75;entryY=0;entryDx=0;entryDy=0;exitX=0.75;exitY=1;exitDx=0;exitDy=0;strokeWidth=4;" edge="1" parent="1">
          <mxGeometry width="50" height="50" relative="1" as="geometry">
            <mxPoint x="1206.71" y="-283.1999999999998" as="sourcePoint" />
            <mxPoint x="1206.71" y="-344.1999999999998" as="targetPoint" />
          </mxGeometry>
        </mxCell>
        <mxCell id="TwdX6o6YfYwtIvAuUACk-261" value="" style="endArrow=none;html=1;rounded=0;entryX=0.75;entryY=0;entryDx=0;entryDy=0;exitX=0.75;exitY=1;exitDx=0;exitDy=0;strokeWidth=4;" edge="1" parent="1">
          <mxGeometry width="50" height="50" relative="1" as="geometry">
            <mxPoint x="1151.71" y="-281.1999999999998" as="sourcePoint" />
            <mxPoint x="1151.71" y="-342.1999999999998" as="targetPoint" />
          </mxGeometry>
        </mxCell>
        <mxCell id="TwdX6o6YfYwtIvAuUACk-262" value="" style="endArrow=none;html=1;rounded=0;entryX=0.75;entryY=0;entryDx=0;entryDy=0;exitX=0.75;exitY=1;exitDx=0;exitDy=0;strokeWidth=4;" edge="1" parent="1">
          <mxGeometry width="50" height="50" relative="1" as="geometry">
            <mxPoint x="1124.3799999999999" y="-281.9499999999998" as="sourcePoint" />
            <mxPoint x="1124.3799999999999" y="-342.9499999999998" as="targetPoint" />
          </mxGeometry>
        </mxCell>
        <mxCell id="TwdX6o6YfYwtIvAuUACk-263" value="" style="rounded=1;whiteSpace=wrap;html=1;fillColor=none;strokeWidth=4;strokeColor=#000000;" vertex="1" parent="1">
          <mxGeometry x="1649.1199999999997" y="-1028.98" width="218.98" height="61" as="geometry" />
        </mxCell>
        <mxCell id="TwdX6o6YfYwtIvAuUACk-264" value="" style="rounded=1;whiteSpace=wrap;html=1;fillColor=none;strokeWidth=4;strokeColor=#000000;" vertex="1" parent="1">
          <mxGeometry x="1649.1199999999997" y="-947.8599999999997" width="217.11" height="61" as="geometry" />
        </mxCell>
        <mxCell id="TwdX6o6YfYwtIvAuUACk-265" value="" style="endArrow=none;html=1;rounded=0;entryX=0.75;entryY=0;entryDx=0;entryDy=0;exitX=0.75;exitY=1;exitDx=0;exitDy=0;strokeWidth=4;" edge="1" parent="1" source="TwdX6o6YfYwtIvAuUACk-263" target="TwdX6o6YfYwtIvAuUACk-263">
          <mxGeometry width="50" height="50" relative="1" as="geometry">
            <mxPoint x="2297.1199999999994" y="-972.6999999999998" as="sourcePoint" />
            <mxPoint x="2347.12" y="-1022.6999999999998" as="targetPoint" />
          </mxGeometry>
        </mxCell>
        <mxCell id="TwdX6o6YfYwtIvAuUACk-266" value="" style="endArrow=none;html=1;rounded=0;entryX=0.75;entryY=0;entryDx=0;entryDy=0;exitX=0.75;exitY=1;exitDx=0;exitDy=0;strokeWidth=4;" edge="1" parent="1">
          <mxGeometry width="50" height="50" relative="1" as="geometry">
            <mxPoint x="1841.1199999999997" y="-967.98" as="sourcePoint" />
            <mxPoint x="1841.1199999999997" y="-1028.98" as="targetPoint" />
          </mxGeometry>
        </mxCell>
        <mxCell id="TwdX6o6YfYwtIvAuUACk-267" value="" style="endArrow=none;html=1;rounded=0;entryX=0.75;entryY=0;entryDx=0;entryDy=0;exitX=0.75;exitY=1;exitDx=0;exitDy=0;strokeWidth=4;" edge="1" parent="1">
          <mxGeometry width="50" height="50" relative="1" as="geometry">
            <mxPoint x="1786.1199999999997" y="-965.98" as="sourcePoint" />
            <mxPoint x="1786.1199999999997" y="-1026.98" as="targetPoint" />
          </mxGeometry>
        </mxCell>
        <mxCell id="TwdX6o6YfYwtIvAuUACk-268" value="" style="endArrow=none;html=1;rounded=0;entryX=0.75;entryY=0;entryDx=0;entryDy=0;exitX=0.75;exitY=1;exitDx=0;exitDy=0;strokeWidth=4;" edge="1" parent="1">
          <mxGeometry width="50" height="50" relative="1" as="geometry">
            <mxPoint x="1758.7899999999997" y="-966.73" as="sourcePoint" />
            <mxPoint x="1758.7899999999997" y="-1027.73" as="targetPoint" />
          </mxGeometry>
        </mxCell>
        <mxCell id="TwdX6o6YfYwtIvAuUACk-269" value="" style="endArrow=none;html=1;rounded=0;entryX=0.75;entryY=0;entryDx=0;entryDy=0;exitX=0.75;exitY=1;exitDx=0;exitDy=0;strokeWidth=4;" edge="1" parent="1">
          <mxGeometry width="50" height="50" relative="1" as="geometry">
            <mxPoint x="1811.45" y="-888.5799999999999" as="sourcePoint" />
            <mxPoint x="1811.45" y="-949.5799999999999" as="targetPoint" />
          </mxGeometry>
        </mxCell>
        <mxCell id="TwdX6o6YfYwtIvAuUACk-270" value="" style="endArrow=none;html=1;rounded=0;entryX=0.75;entryY=0;entryDx=0;entryDy=0;exitX=0.75;exitY=1;exitDx=0;exitDy=0;strokeWidth=4;" edge="1" parent="1">
          <mxGeometry width="50" height="50" relative="1" as="geometry">
            <mxPoint x="1839.45" y="-888.8599999999997" as="sourcePoint" />
            <mxPoint x="1839.45" y="-949.8599999999997" as="targetPoint" />
          </mxGeometry>
        </mxCell>
        <mxCell id="TwdX6o6YfYwtIvAuUACk-271" value="" style="endArrow=none;html=1;rounded=0;entryX=0.75;entryY=0;entryDx=0;entryDy=0;exitX=0.75;exitY=1;exitDx=0;exitDy=0;strokeWidth=4;" edge="1" parent="1">
          <mxGeometry width="50" height="50" relative="1" as="geometry">
            <mxPoint x="1784.45" y="-886.8599999999997" as="sourcePoint" />
            <mxPoint x="1784.45" y="-947.8599999999997" as="targetPoint" />
          </mxGeometry>
        </mxCell>
        <mxCell id="TwdX6o6YfYwtIvAuUACk-272" value="" style="endArrow=none;html=1;rounded=0;entryX=0.75;entryY=0;entryDx=0;entryDy=0;exitX=0.75;exitY=1;exitDx=0;exitDy=0;strokeWidth=4;" edge="1" parent="1">
          <mxGeometry width="50" height="50" relative="1" as="geometry">
            <mxPoint x="1757.1199999999997" y="-887.6099999999997" as="sourcePoint" />
            <mxPoint x="1757.1199999999997" y="-948.6099999999997" as="targetPoint" />
          </mxGeometry>
        </mxCell>
        <mxCell id="TwdX6o6YfYwtIvAuUACk-273" value="" style="rounded=1;whiteSpace=wrap;html=1;fillColor=none;strokeWidth=4;strokeColor=#000000;" vertex="1" parent="1">
          <mxGeometry x="1649.1199999999997" y="-781.6999999999994" width="217.11" height="61" as="geometry" />
        </mxCell>
        <mxCell id="TwdX6o6YfYwtIvAuUACk-274" value="" style="endArrow=none;html=1;rounded=0;entryX=0.75;entryY=0;entryDx=0;entryDy=0;exitX=0.75;exitY=1;exitDx=0;exitDy=0;strokeWidth=4;" edge="1" parent="1">
          <mxGeometry width="50" height="50" relative="1" as="geometry">
            <mxPoint x="1811.45" y="-722.4200000000001" as="sourcePoint" />
            <mxPoint x="1811.45" y="-783.4199999999996" as="targetPoint" />
          </mxGeometry>
        </mxCell>
        <mxCell id="TwdX6o6YfYwtIvAuUACk-275" value="" style="endArrow=none;html=1;rounded=0;entryX=0.75;entryY=0;entryDx=0;entryDy=0;exitX=0.75;exitY=1;exitDx=0;exitDy=0;strokeWidth=4;" edge="1" parent="1">
          <mxGeometry width="50" height="50" relative="1" as="geometry">
            <mxPoint x="1839.45" y="-722.6999999999998" as="sourcePoint" />
            <mxPoint x="1839.45" y="-783.6999999999994" as="targetPoint" />
          </mxGeometry>
        </mxCell>
        <mxCell id="TwdX6o6YfYwtIvAuUACk-276" value="" style="endArrow=none;html=1;rounded=0;entryX=0.75;entryY=0;entryDx=0;entryDy=0;exitX=0.75;exitY=1;exitDx=0;exitDy=0;strokeWidth=4;" edge="1" parent="1">
          <mxGeometry width="50" height="50" relative="1" as="geometry">
            <mxPoint x="1784.45" y="-720.6999999999998" as="sourcePoint" />
            <mxPoint x="1784.45" y="-781.6999999999994" as="targetPoint" />
          </mxGeometry>
        </mxCell>
        <mxCell id="TwdX6o6YfYwtIvAuUACk-277" value="" style="endArrow=none;html=1;rounded=0;entryX=0.75;entryY=0;entryDx=0;entryDy=0;exitX=0.75;exitY=1;exitDx=0;exitDy=0;strokeWidth=4;" edge="1" parent="1">
          <mxGeometry width="50" height="50" relative="1" as="geometry">
            <mxPoint x="1757.1199999999997" y="-721.4499999999998" as="sourcePoint" />
            <mxPoint x="1757.1199999999997" y="-782.4499999999994" as="targetPoint" />
          </mxGeometry>
        </mxCell>
        <mxCell id="TwdX6o6YfYwtIvAuUACk-278" value="" style="shape=curlyBracket;whiteSpace=wrap;html=1;rounded=1;flipH=1;labelPosition=right;verticalLabelPosition=middle;align=left;verticalAlign=middle;strokeWidth=4;size=0;" vertex="1" parent="1">
          <mxGeometry x="1888.97" y="-1032.6999999999998" width="36" height="312" as="geometry" />
        </mxCell>
        <mxCell id="TwdX6o6YfYwtIvAuUACk-279" value="" style="rounded=1;whiteSpace=wrap;html=1;fillColor=#E6E6E6;strokeWidth=4;strokeColor=#000000;" vertex="1" parent="1">
          <mxGeometry x="1650.9899999999996" y="-659.0399999999995" width="217.11" height="61" as="geometry" />
        </mxCell>
        <mxCell id="TwdX6o6YfYwtIvAuUACk-280" value="" style="endArrow=none;html=1;rounded=0;entryX=0.75;entryY=0;entryDx=0;entryDy=0;exitX=0.75;exitY=1;exitDx=0;exitDy=0;strokeWidth=4;" edge="1" parent="1">
          <mxGeometry width="50" height="50" relative="1" as="geometry">
            <mxPoint x="1813.32" y="-599.7599999999998" as="sourcePoint" />
            <mxPoint x="1813.32" y="-660.7599999999998" as="targetPoint" />
          </mxGeometry>
        </mxCell>
        <mxCell id="TwdX6o6YfYwtIvAuUACk-281" value="" style="endArrow=none;html=1;rounded=0;entryX=0.75;entryY=0;entryDx=0;entryDy=0;exitX=0.75;exitY=1;exitDx=0;exitDy=0;strokeWidth=4;" edge="1" parent="1">
          <mxGeometry width="50" height="50" relative="1" as="geometry">
            <mxPoint x="1841.32" y="-600.0399999999995" as="sourcePoint" />
            <mxPoint x="1841.32" y="-661.0399999999995" as="targetPoint" />
          </mxGeometry>
        </mxCell>
        <mxCell id="TwdX6o6YfYwtIvAuUACk-282" value="" style="endArrow=none;html=1;rounded=0;entryX=0.75;entryY=0;entryDx=0;entryDy=0;exitX=0.75;exitY=1;exitDx=0;exitDy=0;strokeWidth=4;" edge="1" parent="1">
          <mxGeometry width="50" height="50" relative="1" as="geometry">
            <mxPoint x="1786.32" y="-598.0399999999995" as="sourcePoint" />
            <mxPoint x="1786.32" y="-659.0399999999995" as="targetPoint" />
          </mxGeometry>
        </mxCell>
        <mxCell id="TwdX6o6YfYwtIvAuUACk-283" value="" style="endArrow=none;html=1;rounded=0;entryX=0.75;entryY=0;entryDx=0;entryDy=0;exitX=0.75;exitY=1;exitDx=0;exitDy=0;strokeWidth=4;" edge="1" parent="1">
          <mxGeometry width="50" height="50" relative="1" as="geometry">
            <mxPoint x="1758.9899999999996" y="-598.7899999999995" as="sourcePoint" />
            <mxPoint x="1758.9899999999996" y="-659.7899999999995" as="targetPoint" />
          </mxGeometry>
        </mxCell>
        <mxCell id="TwdX6o6YfYwtIvAuUACk-284" value="" style="rounded=0;whiteSpace=wrap;html=1;fillColor=#E6E6E6;strokeColor=none;" vertex="1" parent="1">
          <mxGeometry x="1637.1200000000001" y="-1035.6999999999998" width="27" height="456" as="geometry" />
        </mxCell>
        <mxCell id="TwdX6o6YfYwtIvAuUACk-285" style="edgeStyle=orthogonalEdgeStyle;rounded=0;orthogonalLoop=1;jettySize=auto;html=1;strokeWidth=4;" edge="1" parent="1">
          <mxGeometry relative="1" as="geometry">
            <mxPoint x="1950.74" y="-480" as="targetPoint" />
            <mxPoint x="1927.949971929811" y="-629.3300000000002" as="sourcePoint" />
            <Array as="points">
              <mxPoint x="1950.74" y="-629" />
              <mxPoint x="1950.74" y="-492" />
            </Array>
          </mxGeometry>
        </mxCell>
        <mxCell id="TwdX6o6YfYwtIvAuUACk-286" value="" style="ellipse;whiteSpace=wrap;html=1;aspect=fixed;fillColor=none;strokeWidth=4;strokeColor=#000000;" vertex="1" parent="1">
          <mxGeometry x="1868.1000000000001" y="-659.04" width="57" height="57" as="geometry" />
        </mxCell>
        <mxCell id="TwdX6o6YfYwtIvAuUACk-287" value="" style="ellipse;whiteSpace=wrap;html=1;aspect=fixed;fillColor=none;strokeWidth=4;strokeColor=#000000;" vertex="1" parent="1">
          <mxGeometry x="1924.97" y="-903.6999999999998" width="57" height="57" as="geometry" />
        </mxCell>
        <mxCell id="TwdX6o6YfYwtIvAuUACk-288" value="" style="endArrow=classic;html=1;rounded=0;strokeWidth=4;strokeColor=#000000;" edge="1" parent="1">
          <mxGeometry width="50" height="50" relative="1" as="geometry">
            <mxPoint x="1935.22" y="-833.0900000000001" as="sourcePoint" />
            <mxPoint x="1981.97" y="-920.3199999999997" as="targetPoint" />
          </mxGeometry>
        </mxCell>
        <mxCell id="TwdX6o6YfYwtIvAuUACk-289" style="edgeStyle=orthogonalEdgeStyle;rounded=0;orthogonalLoop=1;jettySize=auto;html=1;strokeWidth=4;" edge="1" parent="1" source="TwdX6o6YfYwtIvAuUACk-290" target="TwdX6o6YfYwtIvAuUACk-245">
          <mxGeometry relative="1" as="geometry">
            <Array as="points">
              <mxPoint x="965.74" y="-377.6999999999998" />
              <mxPoint x="965.74" y="-436.6999999999998" />
            </Array>
          </mxGeometry>
        </mxCell>
        <mxCell id="TwdX6o6YfYwtIvAuUACk-290" value="" style="sketch=0;outlineConnect=0;fontColor=#232F3E;gradientColor=none;fillColor=#4D4D4D;strokeColor=none;dashed=0;verticalLabelPosition=bottom;verticalAlign=top;align=center;html=1;fontSize=14;fontStyle=0;pointerEvents=1;shape=mxgraph.aws4.sagemaker_model;fontFamily=Garamond;spacing=3;" vertex="1" parent="1">
          <mxGeometry x="803.5699999999999" y="-444.4599999999996" width="120" height="140.83" as="geometry" />
        </mxCell>
        <mxCell id="TwdX6o6YfYwtIvAuUACk-291" value="" style="sketch=0;outlineConnect=0;fontColor=#232F3E;gradientColor=none;fillColor=#4D4D4D;strokeColor=none;dashed=0;verticalLabelPosition=bottom;verticalAlign=top;align=center;html=1;fontSize=14;fontStyle=0;pointerEvents=1;shape=mxgraph.aws4.sagemaker_model;fontFamily=Garamond;spacing=3;" vertex="1" parent="1">
          <mxGeometry x="1288.7" y="-975.77" width="120" height="140.83" as="geometry" />
        </mxCell>
        <mxCell id="TwdX6o6YfYwtIvAuUACk-292" value="" style="rounded=1;whiteSpace=wrap;html=1;fillColor=none;strokeWidth=2;dashed=1;arcSize=0;" vertex="1" parent="1">
          <mxGeometry x="1557.74" y="-1059.6999999999998" width="490" height="372" as="geometry" />
        </mxCell>
        <mxCell id="TwdX6o6YfYwtIvAuUACk-293" style="edgeStyle=orthogonalEdgeStyle;rounded=0;orthogonalLoop=1;jettySize=auto;html=1;entryX=0.153;entryY=0.825;entryDx=0;entryDy=0;entryPerimeter=0;strokeWidth=4;" edge="1" parent="1" source="TwdX6o6YfYwtIvAuUACk-290" target="TwdX6o6YfYwtIvAuUACk-248">
          <mxGeometry relative="1" as="geometry">
            <Array as="points">
              <mxPoint x="965.74" y="-377.6999999999998" />
              <mxPoint x="965.74" y="-308.6999999999998" />
            </Array>
          </mxGeometry>
        </mxCell>
        <mxCell id="TwdX6o6YfYwtIvAuUACk-294" value="" style="edgeStyle=orthogonalEdgeStyle;rounded=0;orthogonalLoop=1;jettySize=auto;html=1;exitX=1;exitY=0.5;exitDx=0;exitDy=0;strokeWidth=4;" edge="1" parent="1" source="TwdX6o6YfYwtIvAuUACk-250" target="TwdX6o6YfYwtIvAuUACk-291">
          <mxGeometry relative="1" as="geometry">
            <mxPoint x="1361.74" y="-520" as="targetPoint" />
            <mxPoint x="1292.74" y="-436.6999999999998" as="sourcePoint" />
            <Array as="points">
              <mxPoint x="1347.74" y="-437" />
              <mxPoint x="1347.74" y="-905" />
            </Array>
          </mxGeometry>
        </mxCell>
        <mxCell id="TwdX6o6YfYwtIvAuUACk-295" value="" style="shape=mxgraph.networks2.icon;fillColor=#EDEDED;strokeColor=#4D4D4D;gradientColor=#5B6163;network2IconShadow=1;network2bgFillColor=none;network2Icon=mxgraph.networks2.antenna;network2IconYOffset=0.0004;network2IconW=0.508;network2IconH=0.9997;strokeWidth=1;" vertex="1" parent="1">
          <mxGeometry x="1127.74" y="-834.9399999999996" width="147.19" height="302.66" as="geometry" />
        </mxCell>
        <mxCell id="TwdX6o6YfYwtIvAuUACk-296" value="&lt;font style=&quot;color: rgb(255, 255, 255); font-size: 34px;&quot;&gt;First Layer in MD&lt;/font&gt;" style="rounded=1;whiteSpace=wrap;html=1;arcSize=50;fillColor=#4495D1;strokeColor=none;fontSize=20;fontStyle=0;fontFamily=Garamond;spacing=3;" vertex="1" parent="1">
          <mxGeometry x="867.74" y="-249.1500000000001" width="276.19" height="48" as="geometry" />
        </mxCell>
        <mxCell id="TwdX6o6YfYwtIvAuUACk-297" value="&lt;font style=&quot;color: rgb(255, 255, 255); font-size: 34px;&quot;&gt;Second Layer in EN&lt;/font&gt;" style="rounded=1;whiteSpace=wrap;html=1;arcSize=50;fillColor=#4495D1;strokeColor=none;fontSize=20;fontStyle=0;fontFamily=Garamond;spacing=3;" vertex="1" parent="1">
          <mxGeometry x="1465.5700000000002" y="-571.8300000000004" width="312.17" height="48" as="geometry" />
        </mxCell>
        <mxCell id="TwdX6o6YfYwtIvAuUACk-298" style="edgeStyle=orthogonalEdgeStyle;rounded=0;orthogonalLoop=1;jettySize=auto;html=1;entryX=-0.001;entryY=0.139;entryDx=0;entryDy=0;entryPerimeter=0;strokeWidth=4;" edge="1" parent="1" target="TwdX6o6YfYwtIvAuUACk-292">
          <mxGeometry relative="1" as="geometry">
            <Array as="points">
              <mxPoint x="1067.74" y="-1008" />
            </Array>
            <mxPoint x="1067.74" y="-1010" as="sourcePoint" />
          </mxGeometry>
        </mxCell>
        <mxCell id="TwdX6o6YfYwtIvAuUACk-299" style="edgeStyle=orthogonalEdgeStyle;rounded=0;orthogonalLoop=1;jettySize=auto;html=1;strokeWidth=5;fillColor=#dae8fc;strokeColor=#0A74CF;" edge="1" parent="1" source="TwdX6o6YfYwtIvAuUACk-301" target="TwdX6o6YfYwtIvAuUACk-290">
          <mxGeometry relative="1" as="geometry">
            <Array as="points">
              <mxPoint x="867.74" y="-790" />
              <mxPoint x="867.74" y="-790" />
            </Array>
          </mxGeometry>
        </mxCell>
        <mxCell id="TwdX6o6YfYwtIvAuUACk-300" style="edgeStyle=orthogonalEdgeStyle;rounded=0;orthogonalLoop=1;jettySize=auto;html=1;strokeWidth=5;fillColor=#dae8fc;strokeColor=#0A74CF;" edge="1" parent="1" source="TwdX6o6YfYwtIvAuUACk-301" target="TwdX6o6YfYwtIvAuUACk-291">
          <mxGeometry relative="1" as="geometry">
            <Array as="points">
              <mxPoint x="1348.74" y="-1050" />
              <mxPoint x="1348.74" y="-1050" />
            </Array>
          </mxGeometry>
        </mxCell>
        <mxCell id="TwdX6o6YfYwtIvAuUACk-301" value="&lt;font style=&quot;color: rgb(255, 255, 255); font-size: 34px;&quot;&gt;Environment&lt;/font&gt;" style="rounded=1;whiteSpace=wrap;html=1;arcSize=50;fillColor=#4495D1;strokeColor=none;fontSize=20;fontStyle=0;fontFamily=Garamond;spacing=3;" vertex="1" parent="1">
          <mxGeometry x="700" y="-1200" width="1417.74" height="48" as="geometry" />
        </mxCell>
        <mxCell id="TwdX6o6YfYwtIvAuUACk-302" value="" style="ellipse;whiteSpace=wrap;html=1;aspect=fixed;fillColor=#0D0D0D;strokeWidth=4;strokeColor=#000000;" vertex="1" parent="1">
          <mxGeometry x="1343.05" y="-279.19000000000005" width="12" height="12" as="geometry" />
        </mxCell>
        <mxCell id="TwdX6o6YfYwtIvAuUACk-303" value="" style="ellipse;whiteSpace=wrap;html=1;aspect=fixed;fillColor=#0D0D0D;strokeWidth=4;strokeColor=#000000;" vertex="1" parent="1">
          <mxGeometry x="1376.79" y="-279.19000000000005" width="12" height="12" as="geometry" />
        </mxCell>
        <mxCell id="TwdX6o6YfYwtIvAuUACk-304" value="" style="ellipse;whiteSpace=wrap;html=1;aspect=fixed;fillColor=#0D0D0D;strokeWidth=4;strokeColor=#000000;" vertex="1" parent="1">
          <mxGeometry x="1408.7" y="-279.19000000000005" width="12" height="12" as="geometry" />
        </mxCell>
        <mxCell id="TwdX6o6YfYwtIvAuUACk-305" value="&lt;font style=&quot;font-size: 29px;&quot;&gt;&lt;b style=&quot;color: rgb(10, 116, 207);&quot;&gt;Reward&lt;/b&gt;&lt;/font&gt;" style="text;html=1;align=center;verticalAlign=middle;whiteSpace=wrap;rounded=0;rotation=-90;" vertex="1" parent="1">
          <mxGeometry x="819.24" y="-643.1600000000001" width="60" height="30" as="geometry" />
        </mxCell>
        <mxCell id="TwdX6o6YfYwtIvAuUACk-306" value="&lt;font style=&quot;font-size: 29px;&quot;&gt;&lt;b style=&quot;color: rgb(10, 116, 207);&quot;&gt;Reward&lt;/b&gt;&lt;/font&gt;" style="text;html=1;align=center;verticalAlign=middle;whiteSpace=wrap;rounded=0;rotation=-90;" vertex="1" parent="1">
          <mxGeometry x="1402.34" y="-1096.98" width="60" height="30" as="geometry" />
        </mxCell>
        <mxCell id="TwdX6o6YfYwtIvAuUACk-307" value="" style="shape=mxgraph.networks2.icon;fillColor=#EDEDED;strokeColor=#4D4D4D;gradientColor=#5B6163;network2IconShadow=1;network2bgFillColor=none;network2Icon=mxgraph.networks2.antenna;network2IconYOffset=0.0004;network2IconW=0.508;network2IconH=0.9997;strokeWidth=1;" vertex="1" parent="1">
          <mxGeometry x="897.7399999999999" y="-1121.3799999999997" width="147.19" height="302.66" as="geometry" />
        </mxCell>
        <mxCell id="TwdX6o6YfYwtIvAuUACk-308" style="edgeStyle=orthogonalEdgeStyle;rounded=0;orthogonalLoop=1;jettySize=auto;html=1;entryX=-0.008;entryY=0.414;entryDx=0;entryDy=0;entryPerimeter=0;strokeWidth=4;" edge="1" parent="1" source="TwdX6o6YfYwtIvAuUACk-291" target="TwdX6o6YfYwtIvAuUACk-292">
          <mxGeometry relative="1" as="geometry" />
        </mxCell>
        <mxCell id="TwdX6o6YfYwtIvAuUACk-309" style="edgeStyle=orthogonalEdgeStyle;rounded=0;orthogonalLoop=1;jettySize=auto;html=1;entryX=0.888;entryY=0.893;entryDx=0;entryDy=0;entryPerimeter=0;strokeWidth=4;" edge="1" parent="1" source="TwdX6o6YfYwtIvAuUACk-291" target="TwdX6o6YfYwtIvAuUACk-284">
          <mxGeometry relative="1" as="geometry">
            <Array as="points">
              <mxPoint x="1467.74" y="-905" />
              <mxPoint x="1467.74" y="-628" />
            </Array>
          </mxGeometry>
        </mxCell>
        <mxCell id="TwdX6o6YfYwtIvAuUACk-310" value="" style="shape=mxgraph.networks2.icon;fillColor=#EDEDED;strokeColor=#4D4D4D;gradientColor=#5B6163;network2IconShadow=1;network2bgFillColor=none;network2Icon=mxgraph.networks2.antenna;network2IconYOffset=0.0004;network2IconW=0.508;network2IconH=0.9997;strokeWidth=1;" vertex="1" parent="1">
          <mxGeometry x="1875.8700000000001" y="-511.1899999999998" width="147.19" height="302.66" as="geometry" />
        </mxCell>
        <mxCell id="TwdX6o6YfYwtIvAuUACk-311" value="" style="group" vertex="1" connectable="0" parent="1">
          <mxGeometry x="1537.74" y="-333.5999999999999" width="68" height="137.69" as="geometry" />
        </mxCell>
        <mxCell id="TwdX6o6YfYwtIvAuUACk-312" value="" style="sketch=0;pointerEvents=1;shadow=0;dashed=0;html=1;strokeColor=none;fillColor=#434445;aspect=fixed;labelPosition=center;verticalLabelPosition=bottom;verticalAlign=top;align=center;outlineConnect=0;shape=mxgraph.vvd.phone;" vertex="1" parent="TwdX6o6YfYwtIvAuUACk-311">
          <mxGeometry width="68" height="115.25162561576354" as="geometry" />
        </mxCell>
        <mxCell id="TwdX6o6YfYwtIvAuUACk-313" value="" style="rounded=1;whiteSpace=wrap;html=1;arcSize=7;strokeColor=none;" vertex="1" parent="TwdX6o6YfYwtIvAuUACk-311">
          <mxGeometry x="4.69" y="4.8" width="58.65" height="95.2" as="geometry" />
        </mxCell>
        <mxCell id="TwdX6o6YfYwtIvAuUACk-314" value="" style="group" vertex="1" connectable="0" parent="1">
          <mxGeometry x="1437.74" y="-333.60000000000014" width="68" height="137.69" as="geometry" />
        </mxCell>
        <mxCell id="TwdX6o6YfYwtIvAuUACk-315" value="" style="sketch=0;pointerEvents=1;shadow=0;dashed=0;html=1;strokeColor=none;fillColor=#434445;aspect=fixed;labelPosition=center;verticalLabelPosition=bottom;verticalAlign=top;align=center;outlineConnect=0;shape=mxgraph.vvd.phone;" vertex="1" parent="TwdX6o6YfYwtIvAuUACk-314">
          <mxGeometry width="68" height="115.25162561576354" as="geometry" />
        </mxCell>
        <mxCell id="TwdX6o6YfYwtIvAuUACk-316" value="" style="rounded=1;whiteSpace=wrap;html=1;arcSize=7;strokeColor=none;" vertex="1" parent="TwdX6o6YfYwtIvAuUACk-314">
          <mxGeometry x="4.69" y="4.8" width="58.65" height="95.2" as="geometry" />
        </mxCell>
        <mxCell id="TwdX6o6YfYwtIvAuUACk-317" value="" style="ellipse;whiteSpace=wrap;html=1;aspect=fixed;fillColor=#0D0D0D;strokeWidth=4;strokeColor=#000000;" vertex="1" parent="1">
          <mxGeometry x="1050.09" y="-947.8600000000001" width="12" height="12" as="geometry" />
        </mxCell>
        <mxCell id="TwdX6o6YfYwtIvAuUACk-318" value="" style="ellipse;whiteSpace=wrap;html=1;aspect=fixed;fillColor=#0D0D0D;strokeWidth=4;strokeColor=#000000;" vertex="1" parent="1">
          <mxGeometry x="1074.83" y="-927.3600000000001" width="12" height="12" as="geometry" />
        </mxCell>
        <mxCell id="TwdX6o6YfYwtIvAuUACk-319" value="" style="ellipse;whiteSpace=wrap;html=1;aspect=fixed;fillColor=#0D0D0D;strokeWidth=4;strokeColor=#000000;" vertex="1" parent="1">
          <mxGeometry x="1097.74" y="-907.7000000000003" width="12" height="12" as="geometry" />
        </mxCell>
      </root>
    </mxGraphModel>
  </diagram>
</mxfile>
